<svg width="1440" height="480" viewBox="0 0 1440 480" fill="none" xmlns="http://www.w3.org/2000/svg">
  <defs>
    <linearGradient id="bg" x1="120" y1="48" x2="1320" y2="432" gradientUnits="userSpaceOnUse">
      <stop stop-color="#1C1917"/>
      <stop offset="1" stop-color="#292524"/>
    </linearGradient>
    <linearGradient id="node" x1="0" y1="0" x2="0" y2="120" gradientUnits="userSpaceOnUse">
      <stop stop-color="#44403C"/>
      <stop offset="1" stop-color="#292524"/>
    </linearGradient>
    <filter id="glow" x="-20%" y="-40%" width="140%" height="180%">
      <feGaussianBlur stdDeviation="10" result="blur"/>
      <feMerge><feMergeNode in="blur"/><feMergeNode in="SourceGraphic"/></feMerge>
    </filter>
  </defs>
  <rect x="24" y="24" width="1392" height="432" rx="36" fill="url(#bg)"/>
  <rect x="24" y="24" width="1392" height="432" rx="36" stroke="#D97706" stroke-width="1.5"/>
  <g font-family="Segoe UI, -apple-system, BlinkMacSystemFont, sans-serif">
    <rect x="72" y="60" width="190" height="40" rx="20" fill="#292524" stroke="#D97706"/>
    <rect x="278" y="60" width="190" height="40" rx="20" fill="#292524" stroke="#D97706"/>
    <rect x="484" y="60" width="200" height="40" rx="20" fill="#292524" stroke="#D97706"/>
    <text x="96" y="85" fill="#FEF3C7" font-size="14" font-weight="600">Evidence-Grounded RAG</text>
    <text x="312" y="85" fill="#FEF3C7" font-size="14" font-weight="600">Multimodal VLM Parsing</text>
    <text x="520" y="85" fill="#FEF3C7" font-size="14" font-weight="600">Human-in-the-Loop Review</text>
  </g>
  <g filter="url(#glow)" stroke="#FBBF24" stroke-width="4" stroke-linecap="round">
    <path d="M280 240H324"/><path d="M492 240H536"/><path d="M704 240H748"/><path d="M916 240H960"/><path d="M1128 240H1172"/>
  </g>
  <g fill="#FBBF24">
    <path d="M324 240L312 233V247L324 240Z"/><path d="M536 240L524 233V247L536 240Z"/><path d="M748 240L736 233V247L748 240Z"/><path d="M960 240L948 233V247L960 240Z"/><path d="M1172 240L1160 233V247L1172 240Z"/>
  </g>
  <g fill="url(#node)" stroke="#D97706">
    <rect x="76" y="184" width="204" height="112" rx="26"/><rect x="288" y="184" width="204" height="112" rx="26"/><rect x="500" y="184" width="204" height="112" rx="26"/><rect x="712" y="184" width="204" height="112" rx="26"/><rect x="924" y="184" width="204" height="112" rx="26"/><rect x="1136" y="184" width="204" height="112" rx="26"/>
  </g>
  <g fill="#292524" stroke="#FBBF24">
    <rect x="156" y="198" width="44" height="44" rx="12"/><rect x="368" y="198" width="44" height="44" rx="12"/><rect x="580" y="198" width="44" height="44" rx="12"/><rect x="792" y="198" width="44" height="44" rx="12"/><rect x="1004" y="198" width="44" height="44" rx="12"/><rect x="1216" y="198" width="44" height="44" rx="12"/>
  </g>
  <g fill="none" stroke="#FDE68A" stroke-width="2.5" stroke-linecap="round" stroke-linejoin="round">
    <!-- Visual slide deck -->
    <rect x="168" y="210" width="20" height="15" rx="2"/><line x1="178" y1="225" x2="178" y2="231"/><line x1="172" y1="231" x2="184" y2="231"/>
    <!-- Section inference -->
    <path d="M382 212H398M382 220H394M382 228H398"/><circle cx="374" cy="212" r="1.5" fill="#FDE68A"/><circle cx="374" cy="220" r="1.5" fill="#FDE68A"/><circle cx="374" cy="228" r="1.5" fill="#FDE68A"/>
    <!-- VLM page interpretation -->
    <circle cx="602" cy="220" r="9"/><path d="M598 220L601 223L606 217"/><rect x="592" y="210" width="20" height="20" rx="3"/>
    <!-- Knowledge synthesis -->
    <path d="M804 212L814 216L824 212L814 208Z"/><path d="M804 220L814 224L824 220"/><path d="M804 228L814 232L824 228"/>
    <!-- Streamlit human review -->
    <circle cx="1026" cy="220" r="10"/><path d="M1021 220L1024 224L1031 216"/>
    <!-- Chroma vector store -->
    <ellipse cx="1238" cy="214" rx="10" ry="4"/><path d="M1228 214V226C1228 228 1232 230 1238 230C1244 230 1248 228 1248 226V214"/>
  </g>
  <g font-family="Segoe UI, -apple-system, BlinkMacSystemFont, sans-serif" fill="#FFFBEB" font-size="20" font-weight="700">
    <text x="100" y="272">Deck Ingestion</text>
    <text x="320" y="272">Section Split</text>
    <text x="528" y="272">VLM Analysis</text>
    <text x="734" y="272">Typed Synthesis</text>
    <text x="946" y="272">Human Review</text>
    <text x="1152" y="272">Chroma QA</text>
  </g>
  <g font-family="Segoe UI, -apple-system, BlinkMacSystemFont, sans-serif" fill="#FCD34D" font-size="12">
    <text x="96" y="288">PPTX / DOCX / PDF</text>
    <text x="326" y="288">Hybrid Reconciliation</text>
    <text x="532" y="288">Visuals &amp; Prior Context</text>
    <text x="746" y="288">Pydantic Schema</text>
    <text x="956" y="288">Grounding Audit</text>
    <text x="1156" y="288">Source-Cited RAG</text>
  </g>
</svg>
